<svg xmlns="http://www.w3.org/2000/svg" width="256" height="256" viewBox="0 0 256 256">
  <rect width="256" height="256" rx="32" fill="#DBF0FF"/>
  <!-- Head -->
  <circle cx="128" cy="116" r="56" fill="#FFE6D5"/>
  <!-- Scarf -->
  <path d="M72 156 Q128 176 184 156 Q170 188 128 192 Q88 186 72 156 Z" fill="#A5C7FF"/>
  <rect x="108" y="164" width="20" height="36" rx="6" fill="#98BCFF"/>
  <!-- Stars on scarf -->
  <g fill="#FFF">
    <circle cx="92" cy="162" r="2"/>
    <circle cx="116" cy="172" r="2"/>
    <circle cx="140" cy="170" r="2"/>
    <circle cx="164" cy="162" r="2"/>
    <circle cx="152" cy="182" r="2"/>
  </g>
  <!-- Eyes -->
  <circle cx="112" cy="116" r="6" fill="#333"/>
  <circle cx="144" cy="116" r="6" fill="#333"/>
  <circle cx="110" cy="114" r="2" fill="#fff"/>
  <circle cx="142" cy="114" r="2" fill="#fff"/>
  <!-- Nose & smile -->
  <ellipse cx="128" cy="126" rx="6" ry="4" fill="#5B4337"/>
  <path d="M110 138 Q128 148 146 138" stroke="#5B4337" stroke-width="3" fill="none" stroke-linecap="round"/>
  <!-- Cheeks -->
  <circle cx="98" cy="130" r="7" fill="#FFA7B9" opacity="0.6"/>
  <circle cx="158" cy="130" r="7" fill="#FFA7B9" opacity="0.6"/>
</svg>