<svg xmlns="http://www.w3.org/2000/svg" viewBox="0 0 630 630">
    <rect width="630" height="630" fill="#f7df1e"/>
    <path d="M423.2 492.2c13.2 21.6 30.2 37.6 60.4 37.6 25.4 0 41.6-12.7 41.6-30.2 0-21-16.6-28.4-44.6-40.6l-15.2-6.6c-43.8-18.6-72.8-42-72.8-91.4 0-45.4 34.6-80 88.6-80 38.4 0 66 13.4 85.8 48.4l-47 30.2c-10.4-18.6-21.6-25.8-38.8-25.8-17.6 0-28.8 11.2-28.8 25.8 0 18 11.2 25.4 37.2 36.6l15.2 6.6c51.6 22.2 80.6 44.2 80.6 94.4 0 54-42.4 83.6-99.4 83.6-55.6 0-91.6-26.4-109-61l48-28.2zM229 497c9.6 17 18.2 31.4 38.8 31.4 19.8 0 32.4-7.8 32.4-38.2V286.2h60.6V490c0 62.8-36.8 91.4-90.6 91.4-48.6 0-76.8-25.2-91.2-55l50-29.4z"/>
</svg>
